<?xml version="1.0" encoding="UTF-8" standalone="no"?>
<!-- Created with Inkscape (http://www.inkscape.org/) -->

<svg
   xmlns:dc="http://purl.org/dc/elements/1.1/"
   xmlns:cc="http://creativecommons.org/ns#"
   xmlns:rdf="http://www.w3.org/1999/02/22-rdf-syntax-ns#"
   xmlns:svg="http://www.w3.org/2000/svg"
   xmlns="http://www.w3.org/2000/svg"
   xmlns:sodipodi="http://sodipodi.sourceforge.net/DTD/sodipodi-0.dtd"
   xmlns:inkscape="http://www.inkscape.org/namespaces/inkscape"
   width="32"
   height="32"
   viewBox="0 0 8.4666665 8.466667"
   version="1.1"
   id="svg8"
   inkscape:version="0.92.1 r15371"
   sodipodi:docname="camera.svg">
  <defs
     id="defs2" />
  <sodipodi:namedview
     id="base"
     pagecolor="#ffffff"
     bordercolor="#666666"
     borderopacity="1.0"
     inkscape:pageopacity="0.0"
     inkscape:pageshadow="2"
     inkscape:zoom="8"
     inkscape:cx="-5.90625"
     inkscape:cy="4.4289477"
     inkscape:document-units="mm"
     inkscape:current-layer="layer1"
     showgrid="false"
     units="px"
     inkscape:snap-nodes="false"
     inkscape:window-width="1366"
     inkscape:window-height="712"
     inkscape:window-x="0"
     inkscape:window-y="0"
     inkscape:window-maximized="1" />
  <metadata
     id="metadata5">
    <rdf:RDF>
      <cc:Work
         rdf:about="">
        <dc:format>image/svg+xml</dc:format>
        <dc:type
           rdf:resource="http://purl.org/dc/dcmitype/StillImage" />
        <dc:title></dc:title>
      </cc:Work>
    </rdf:RDF>
  </metadata>
  <g
     inkscape:label="Layer 1"
     inkscape:groupmode="layer"
     id="layer1"
     transform="translate(0,-288.53332)">
    <g
       id="g4325"
       transform="translate(-0.13229153,0.23156283)">
      <path
         inkscape:connector-curvature="0"
         id="rect4317"
         d="m 1.1504661,290.94121 c -0.22481657,0 -0.40580867,0.18099 -0.40580867,0.40581 v 3.88156 c 0,0.22482 0.1809921,0.40581 0.40580867,0.40581 h 6.4303172 c 0.224817,0 0.405809,-0.18099 0.405809,-0.40581 v -3.88156 c 0,-0.22482 -0.180992,-0.40581 -0.405809,-0.40581 z m 5.1796082,0.4312 h 0.929711 c 0.138422,0 0.249747,0.11157 0.249747,0.25 v 0.21646 c 0,0.13842 -0.111325,0.24975 -0.249747,0.24975 h -0.929711 c -0.138422,0 -0.249748,-0.11133 -0.249748,-0.24975 v -0.21646 c 0,-0.13843 0.111326,-0.25 0.249748,-0.25 z m -2.7028438,0.14891 a 1.7628075,1.7664502 0 0 1 1.7627777,1.76648 1.7628075,1.7664502 0 0 1 -1.7627777,1.76648 1.7628075,1.7664502 0 0 1 -1.7627778,-1.76648 1.7628075,1.7664502 0 0 1 1.7627778,-1.76648 z"
         style="opacity:1;vector-effect:none;fill:#bac3cf;fill-opacity:1;fill-rule:nonzero;stroke:none;stroke-width:0.44979164;stroke-linecap:butt;stroke-linejoin:miter;stroke-miterlimit:4;stroke-dasharray:none;stroke-dashoffset:0;stroke-opacity:1" />
      <rect
         ry="0.15160824"
         y="289.43579"
         x="3.0754631"
         height="1.2098413"
         width="2.5803242"
         id="rect4319"
         style="opacity:1;vector-effect:none;fill:#bac3cf;fill-opacity:1;fill-rule:nonzero;stroke:none;stroke-width:0.34395832;stroke-linecap:butt;stroke-linejoin:miter;stroke-miterlimit:4;stroke-dasharray:none;stroke-dashoffset:0;stroke-opacity:1" />
      <path
         inkscape:connector-curvature="0"
         id="rect4321"
         d="m 1.5204981,290.12376 c -0.1492257,0 -0.2695399,0.12204 -0.2695399,0.27331 v 0.24853 h 1.0650809 v -0.24853 c 0,-0.15133 -0.1203138,-0.27331 -0.2695399,-0.27331 z"
         style="opacity:1;vector-effect:none;fill:#bac3cf;fill-opacity:1;fill-rule:nonzero;stroke:none;stroke-width:0.29077709;stroke-linecap:butt;stroke-linejoin:miter;stroke-miterlimit:4;stroke-dasharray:none;stroke-dashoffset:0;stroke-opacity:1" />
    </g>
  </g>
</svg>
